<?xml version="1.0"?>
<svg xmlns="http://www.w3.org/2000/svg" height="512px" viewBox="0 0 447.22478 447" width="512px" class=""><g transform="matrix(0.94148, 0, 0, 0.94148, 13.0858, 13.0792)"><path d="m270.5 112.34375-69.542969-18.632812-28.96875 108.183593 69.601563 18.632813c29.78125 7.753906 60.238281-9.976563 68.203125-39.703125 7.960937-29.726563-9.558594-60.308594-39.230469-68.480469zm0 0" data-original="#000000" class="active-path" data-old_color="#ebc631" fill="#ebc631"/><path d="m233.589844.320312c-3.265625-.144531-6.5625-.207031-9.832032-.207031-88.808593.097657-169.175781 52.648438-204.867187 133.96875-35.695313 81.316407-19.976563 176.042969 40.066406 241.476563 83.804688 90.398437 224.894531 96.097656 315.71875 12.753906 90.820313-83.339844 97.238281-224.402344 14.359375-315.648438-40.070312-43.910156-96.046875-69.960937-155.445312-72.34375zm92 184.753907c-6.277344 23.355469-23.859375 42.003906-46.808594 49.636719 29.136719 19.691406 39.769531 57.558593 25.136719 89.539062-14.632813 31.976562-50.238281 48.6875-84.1875 39.511719l-23.199219-6.210938-6.207031 23.203125c-.933594 3.5-4.105469 5.933594-7.726563 5.933594-.703125 0-1.398437-.09375-2.074218-.277344-4.261719-1.144531-6.796876-5.527344-5.65625-9.792968l6.210937-23.199219-30.929687-8.289063-6.207032 23.199219c-.9375 3.5-4.105468 5.9375-7.730468 5.9375-.699219 0-1.394532-.09375-2.070313-.28125-4.265625-1.144531-6.796875-5.527344-5.65625-9.792969l6.214844-23.199218-38.640625-10.351563c-4.246094-1.160156-6.761719-5.53125-5.621094-9.785156 1.136719-4.253907 5.5-6.789063 9.757812-5.671875l23.199219 6.214844 62.121094-231.820313-23.199219-6.21875c-2.828125-.675781-5.066406-2.835937-5.847656-5.640625-.777344-2.804688.03125-5.808594 2.105469-7.847656 2.078125-2.039063 5.097656-2.789063 7.886719-1.957032l38.640624 10.351563 6.207032-23.203125c1.15625-4.246094 5.53125-6.761719 9.785156-5.621094 4.253906 1.136719 6.789062 5.5 5.671875 9.757813l-6.21875 23.199219 30.914063 8.289062 6.207031-23.199219c1.160156-4.25 5.53125-6.761719 9.785156-5.625 4.253906 1.140625 6.789063 5.5 5.671875 9.761719l-6.207031 23.199219 7.726562 2.070312c38.417969 10.28125 61.230469 49.761719 50.945313 88.179688zm0 0" data-original="#000000" class="active-path" data-old_color="#ebc631" fill="#ebc631"/><path d="m252.789062 240.113281-84.96875-22.769531-28.984374 108.183594 85 22.777344c19.363281 5.277343 40.070312-.207032 54.277343-14.382813 14.207031-14.171875 19.746094-34.867187 14.515625-54.242187-5.230468-19.375-20.429687-34.46875-39.839844-39.566407zm0 0" data-original="#000000" class="active-path" data-old_color="#ebc631" fill="#ebc631"/></g> </svg>
