<?xml version="1.0"?>
<svg xmlns="http://www.w3.org/2000/svg" viewBox="-31 0 512 512" width="512px" height="512px" class=""><g><path d="m210 361h30v151h-30zm0 0" fill="#93bf00" data-original="#93BF00" class=""/><path d="m225 361h15v151h-15zm0 0" fill="#81a713" data-original="#81A713"/><path d="m330 421c-44.28125 0-108.675781-30.144531-111.402344-31.4375l-28.738281-13.5625 28.738281-13.5625c2.726563-1.292969 67.121094-31.4375 111.402344-31.4375 46.609375 0 83.453125 32.433594 84.988281 33.808594l12.527344 11.191406-12.523437 11.191406c-1.539063 1.375-38.382813 33.808594-84.992188 33.808594zm0 0" fill="#81a713" data-original="#81A713"/><path d="m120 421c-46.609375 0-83.453125-32.433594-84.988281-33.808594l-12.527344-11.191406 12.523437-11.191406c1.539063-1.375 38.382813-33.808594 84.992188-33.808594 44.28125 0 108.675781 30.144531 111.402344 31.4375l28.738281 13.5625-28.738281 13.5625c-2.726563 1.292969-67.121094 31.4375-111.402344 31.4375zm0 0" fill="#93bf00" data-original="#93BF00" class=""/><path d="m450 151-3 19.800781c-.300781 3.300781-18.898438 87-74.699219 142.5-54.898437 55.199219-140.101562 76.5-143.699219 77.398438l-3.601562.601562-3.601562-.601562c-3.597657-.898438-88.800782-22.199219-143.699219-77.402344-55.800781-55.496094-74.398438-139.195313-74.699219-142.496094l-3-19.800781 19.800781 3c3.300781.300781 87 18.898438 142.5 74.699219 6.597657 6.300781 12.597657 13.5 18.601563 21h88.195312c6-7.5 12.003906-14.699219 18.601563-21 55.5-55.800781 139.199219-74.398438 142.5-74.699219zm0 0" fill="#a8d32a" data-original="#A8D32A" class=""/><path d="m450 151-3 19.800781c-.300781 3.300781-18.898438 87-74.699219 142.5-54.898437 55.199219-140.101562 76.5-143.699219 77.398438l-3.601562.601562v-141.601562h44.097656c6-7.5 12.003906-14.699219 18.601563-21 55.5-55.800781 139.199219-74.398438 142.5-74.703125zm0 0" fill="#93bf00" data-original="#93BF00" class=""/><path d="m225 0c-54.601562 68.101562-75 124.300781-75 181 0 73.199219 35.398438 148.800781 75 210 39.601562-61.199219 75-136.800781 75-210 0-56.699219-20.398438-112.898438-75-181zm0 0" fill="#b9dd39" data-original="#B9DD39" class="active-path" style="fill:#B9DD39"/><path d="m300 181c0 73.199219-35.398438 148.800781-75 210v-391c54.601562 68.101562 75 124.300781 75 181zm0 0" fill="#a8d32a" data-original="#A8D32A" class=""/></g> </svg>
