<?xml version="1.0" encoding="UTF-8"?> <svg xmlns="http://www.w3.org/2000/svg" xmlns:xlink="http://www.w3.org/1999/xlink" id="Capa_1" x="0px" y="0px" viewBox="0 0 512 512" style="enable-background:new 0 0 512 512;" xml:space="preserve" width="512px" height="512px"><g transform="matrix(0.94148 0 0 0.94148 14.9811 14.9811)"><rect x="451.655" style="fill:#E5E5E5;" width="37.142" height="64.998" data-original="#E5E5E5"></rect><g> <path style="fill:#A61A36;" d="M296.216,402.896c3.844,25.303-13.538,48.925-38.841,52.779c-0.362,0.056-0.724,0.102-1.086,0.149 c-2.878,0.279-5.943,0.464-8.914,0.464c-20.057,0.028-39.296-7.921-53.484-22.099L82.465,322.762 c-29.537-29.546-29.528-77.45,0.019-106.987c15.692-15.683,37.476-23.687,59.594-21.895c18.311,1.82,35.424,9.963,48.377,23.028 c15.85,15.497,35.73,26.25,57.384,31.013c15.516,3.083,27.476,15.488,29.992,31.106L296.216,402.896z" data-original="#A61A36"></path> <path style="fill:#A61A36;" d="M441.348,171.595c-14.727,72.473-44.737,140.981-88.026,200.937 c-2.934,4.206-8.719,5.237-12.925,2.303c-2.108-1.467-3.51-3.751-3.881-6.296c-4.457-29.156-11.421-80.412-14.857-106.504 c-1.216-9.053,4.401-17.633,13.185-20.149C376.517,229.518,413.585,205.051,441.348,171.595z" data-original="#A61A36"></path> </g><path style="fill:#D32144" d="M488.797,64.998h18.571v5.014c0.019,151.362-60.105,296.522-167.138,403.546 c-51.293,51.256-134.416,51.256-185.709,0L43.095,362.133c-51.284-51.284-51.284-134.426,0-185.709s134.426-51.284,185.709,0 c11.895,11.885,28.033,18.571,44.849,18.571c72.371-0.019,135.976-47.978,155.903-117.554l3.528-12.443H488.797z M353.322,372.532 c43.289-59.956,73.299-128.464,88.026-200.937c-27.764,33.456-64.831,57.923-106.504,70.291 c-8.784,2.516-14.402,11.096-13.185,20.149c3.436,26.092,10.4,77.348,14.857,106.504c0.734,5.079,5.432,8.598,10.511,7.874 C349.571,376.042,351.855,374.64,353.322,372.532z M256.289,455.823c25.386-3.25,43.326-26.454,40.076-51.841 c-0.046-0.362-0.093-0.724-0.149-1.086l-18.385-123.868c-2.516-15.618-14.476-28.023-29.992-31.106 c-21.654-4.763-41.534-15.516-57.384-31.013c-12.953-13.065-30.066-21.208-48.377-23.028c-41.664-3.333-78.137,27.736-81.471,69.4 c-1.764,22.072,6.221,43.809,21.858,59.483l111.425,111.425c14.188,14.179,33.428,22.127,53.484,22.099 C250.346,456.287,253.411,456.102,256.289,455.823z" data-original="#D32144" class="active-path"></path></g> </svg> 