<?xml version="1.0"?>
<svg xmlns="http://www.w3.org/2000/svg" xmlns:x="http://ns.adobe.com/Extensibility/1.0/" xmlns:i="http://ns.adobe.com/AdobeIllustrator/10.0/" xmlns:graph="http://ns.adobe.com/Graphs/1.0/" id="Layer_1" enable-background="new 0 0 110 110" height="512px" viewBox="0 0 110 110" width="512px" class=""><g transform="matrix(1.29526, 0, 0, 1.29526, -16.2391, -16.2391)"><path d="m35.0382996 36.287632c-.8442421 2.022686-4.5213642 1.6106644-8.1982937 1.7338142-3.6769943-.1231499-7.3538609.2888718-8.1985531-1.7338142-1.6069145-4.0085068 1.9464397-9.5431023 8.1983604-9.5722466 6.2520485.0277157 9.8054009 5.5623093 8.1984864 9.5722466z" fill="#ffd98a" data-original="#FFD98A" class="" style="fill:#DCD7CE" data-old_color="#E8E3D9"/><path d="m31.6819172 35.2421455c-.6024971 1.9266815-9.082098 1.9266815-9.684145 0-.5537357-2.4932823 1.5930214-5.2100029 4.842041-5.2114315 3.2485676.0008564 5.3958397 2.7175808 4.842104 5.2114315z" fill="#fdf0cd" data-original="#FDF0CD" class="" style="fill:#F6F3ED" data-old_color="#FDF0CD"/><path d="m57.0349808 38.1922951c-.8206139 2.0346413-4.5022278 1.675457-8.1774139 1.8514023-3.6781235-.0703354-7.3498802.394455-8.2180595-1.6159286-1.6534653-3.9850998 1.8351364-9.5702591 8.0861931-9.6891842 6.2518462-.0620709 9.8693618 5.42103 8.3092803 9.4537105z" fill="#ffd98a" data-original="#FFD98A" class="" style="fill:#DCD7CE" data-old_color="#E8E3D9"/><path d="m53.6667023 37.1950951c-.5800056 1.935173-9.0588989 2.0569458-9.6833344.1390724-.5827255-2.4851189 1.5322113-5.2324448 4.780941-5.2805328 3.2483101-.0457955 5.4270401 2.6398658 4.9023934 5.1414604z" fill="#fdf0cd" data-original="#FDF0CD" class="" style="fill:#F6F3ED" data-old_color="#FDF0CD"/><path d="m35.8389511 32.711216c-1.6403999 1.2853088-4.6421471-1.1088219-7.8841591-3.0390282-3.1314163-2.1437035-6.5031548-3.8235168-6.3265076-6.0444584.4082108-4.3642521 5.9742928-7.1924438 11.4057388-3.7542782 5.4060174 3.4875145 5.9991151 10.2526646 2.8049279 12.8377648z" fill="#ffd98a" data-original="#FFD98A" class="" style="fill:#DCD7CE" data-old_color="#E8E3D9"/><path d="m33.3997726 29.9457626c-1.3877563 1.3360252-8.7367764-3.3614845-8.3929653-5.3647995.640234-2.4676132 3.7212906-3.6328621 6.5377617-1.8342152 2.815054 1.800377 3.4555073 5.3444215 1.8552036 7.1990147z" fill="#fdf0cd" data-original="#FDF0CD" class="" style="fill:#F6F3ED" data-old_color="#FDF0CD"/><path d="m69.3013687 35.0884895c-.8442459 2.022686-4.5213699 1.6106644-8.1982956 1.7338142-3.6769943-.1231499-7.3538589.2888718-8.1985512-1.7338142-1.6069183-4.0085068 1.9464378-9.5431023 8.1983566-9.5722466 6.2520486.0277158 9.8054009 5.5623093 8.1984902 9.5722466z" fill="#ffd98a" data-original="#FFD98A" class="" style="fill:#DCD7CE" data-old_color="#E8E3D9"/><path d="m65.9449844 34.0430031c-.6025009 1.9266815-9.0820999 1.9266815-9.6841469 0-.5537338-2.4932804 1.5930214-5.2100029 4.842041-5.2114334 3.2485696.0008583 5.3958398 2.7175808 4.8421059 5.2114334z" fill="#fdf0cd" data-original="#FDF0CD" class="" style="fill:#F6F3ED" data-old_color="#FDF0CD"/><path d="m50.3353806 22.8533268c-.8442421 2.0226841-4.5213623 1.6106606-8.1982956 1.7338104-3.6769905-.1231499-7.3538589.2888737-8.1985512-1.7338104-1.6069145-4.0085087 1.9464417-9.5431042 8.1983604-9.5722485 6.2520485.0277157 9.8054009 5.5623112 8.1984864 9.5722485z" fill="#ffd98a" data-original="#FFD98A" class="" style="fill:#DCD7CE" data-old_color="#E8E3D9"/><path d="m46.9790001 21.8078403c-.6024971 1.9266777-9.0820999 1.9266777-9.6841469 0-.5537376-2.4932823 1.5930214-5.2100048 4.842041-5.2114334 3.2485695.0008564 5.3958397 2.7175789 4.8421059 5.2114334z" fill="#fdf0cd" data-original="#FDF0CD" class="" style="fill:#F6F3ED" data-old_color="#FDF0CD"/><path d="m59.4233322 35.0421486c-1.5834618 1.370533-4.6844025-.8622704-8.0054588-2.6189766-3.2197342-1.9758053-6.6596375-3.4755478-6.5783653-5.7033081.220726-4.3808784 5.6593056-7.4999866 11.2319374-4.3527222 5.5493393 3.1979046 6.4316749 9.9240494 3.3518867 12.6750069z" fill="#ffd98a" data-original="#FFD98A" class="" style="fill:#DCD7CE" data-old_color="#E8E3D9"/><path d="m56.8684082 32.4087181c-1.3289299 1.4078445-8.8709297-2.8960133-8.6133537-4.9152279.5337601-2.4986458 3.5613937-3.8253822 6.4517517-2.1776009 2.8890152 1.6495877 3.6806183 5.1557751 2.161602 7.0928288z" fill="#fdf0cd" data-original="#FDF0CD" class="" style="fill:#F6F3ED" data-old_color="#FDF0CD"/><path d="m42.0504303 46.7615776c-1.6607742 1.2526283-4.6236076-1.2005463-7.8341179-3.1946259-3.0965023-2.2053528-6.4407368-3.9516449-6.2284603-6.1687393.4782104-4.3554764 6.0888119-7.0730305 11.464201-3.5278893 5.349163 3.593979 5.8335571 10.3697968 2.5983772 12.8912545z" fill="#ffd98a" data-original="#FFD98A" class="" style="fill:#DCD7CE" data-old_color="#E8E3D9"/><path d="m39.6560364 43.9482727c-1.4089813 1.308342-8.6814213-3.533905-8.3055019-5.5300941.6797466-2.4545479 3.7790203-3.5586166 6.5661678-1.7045021 2.7857055 1.8558197 3.3691559 5.4119796 1.7393341 7.2345962z" fill="#fdf0cd" data-original="#FDF0CD" class="" style="fill:#F6F3ED" data-old_color="#FDF0CD"/><path d="m48.7915955 28.9099941c.0034866 2.2293739-3.4866409 3.5793324-6.7731705 5.4143581-3.3802071 1.6117783-6.5568771 3.7086563-8.0914764 2.2708893-2.9804211-2.8807678-1.8628502-9.563652 3.7937813-12.5203648 5.6783637-2.9052276 11.0034179.4467221 11.0708656 4.8351174z" fill="#ffd98a" data-original="#FFD98A" class="" style="fill:#DCD7CE" data-old_color="#E8E3D9"/><path d="m45.3514519 29.5353489c.1861496 2.0290337-7.5010757 6.0034466-8.779213 4.5389881-1.449707-2.0007629-.5361977-5.4698124 2.4086723-6.9939327 2.9453354-1.5218353 5.9246026-.0654087 6.3705407 2.4549446z" fill="#fdf0cd" data-original="#FDF0CD" class="" style="fill:#F6F3ED" data-old_color="#FDF0CD"/><path d="m74.9650421 36.287632c.8442383 2.022686 4.5213623 1.6106644 8.1982956 1.7338142 3.6769943-.1231499 7.3538589.2888718 8.1985474-1.7338142 1.6069183-4.0085068-1.946434-9.5431023-8.1983566-9.5722466-6.2520447.0277157-9.8054047 5.5623093-8.1984864 9.5722466z" fill="#ffd98a" data-original="#FFD98A" class="" style="fill:#DCD7CE" data-old_color="#E8E3D9"/><path d="m78.3214264 35.2421455c.6024933 1.9266815 9.0820923 1.9266815 9.6841431 0 .5537338-2.4932823-1.5930252-5.2100029-4.842041-5.2114315-3.2485657.0008564-5.3958436 2.7175808-4.8421021 5.2114315z" fill="#fdf0cd" data-original="#FDF0CD" class="" style="fill:#F6F3ED" data-old_color="#FDF0CD"/><path d="m52.9683609 38.1922951c.8206139 2.0346413 4.5022278 1.675457 8.1774139 1.8514023 3.6781235-.0703354 7.349884.394455 8.2180557-1.6159286 1.6534729-3.9850998-1.8351288-9.5702591-8.0861893-9.6891842-6.2518462-.0620709-9.8693618 5.42103-8.3092803 9.4537105z" fill="#ffd98a" data-original="#FFD98A" class="" style="fill:#DCD7CE" data-old_color="#E8E3D9"/><path d="m56.3366356 37.1950951c.5800095 1.935173 9.0589027 2.0569458 9.6833382.1390724.5827255-2.4851189-1.5322113-5.2324448-4.7809448-5.2805328-3.2483063-.0457955-5.4270364 2.6398658-4.9023934 5.1414604z" fill="#fdf0cd" data-original="#FDF0CD" class="" style="fill:#F6F3ED" data-old_color="#FDF0CD"/><path d="m74.1643906 32.711216c1.6403961 1.2853088 4.6421432-1.1088219 7.8841629-3.0390282 3.1314087-2.1437035 6.5031509-3.8235168 6.3264999-6.0444584-.4082108-4.3642521-5.9742889-7.1924438-11.4057388-3.7542782-5.4060135 3.4875145-5.9991074 10.2526646-2.804924 12.8377648z" fill="#ffd98a" data-original="#FFD98A" class="" style="fill:#DCD7CE" data-old_color="#E8E3D9"/><path d="m76.603569 29.9457626c1.3877563 1.3360252 8.7367783-3.3614845 8.3929672-5.3647995-.6402359-2.4676132-3.7212906-3.6328621-6.5377655-1.8342152-2.8150558 1.800377-3.4555053 5.3444215-1.8552017 7.1990147z" fill="#fdf0cd" data-original="#FDF0CD" class="" style="fill:#F6F3ED" data-old_color="#FDF0CD"/><path d="m40.7019768 35.0884895c.8442383 2.022686 4.5213623 1.6106644 8.1982918 1.7338142 3.6769943-.1231499 7.3538589.2888718 8.1985512-1.7338142 1.6069183-4.0085068-1.9464378-9.5431023-8.1983566-9.5722466-6.2520486.0277158-9.8054048 5.5623093-8.1984864 9.5722466z" fill="#ffd98a" data-original="#FFD98A" class="" style="fill:#DCD7CE" data-old_color="#E8E3D9"/><path d="m44.0583572 34.0430031c.6024971 1.9266815 9.0820999 1.9266815 9.6841469 0 .5537338-2.4932804-1.5930214-5.2100029-4.842041-5.2114334-3.2485695.0008583-5.3958435 2.7175808-4.8421059 5.2114334z" fill="#fdf0cd" data-original="#FDF0CD" class="" style="fill:#F6F3ED" data-old_color="#FDF0CD"/><path d="m59.6679611 22.8533268c.8442421 2.0226841 4.5213623 1.6106606 8.1982956 1.7338104 3.6769943-.1231499 7.3538589.2888737 8.1985474-1.7338104 1.6069183-4.0085087-1.946434-9.5431042-8.1983566-9.5722485-6.2520485.0277157-9.8054047 5.5623112-8.1984864 9.5722485z" fill="#ffd98a" data-original="#FFD98A" class="" style="fill:#DCD7CE" data-old_color="#E8E3D9"/><path d="m63.0243416 21.8078403c.6024971 1.9266777 9.0820961 1.9266777 9.6841469 0 .5537338-2.4932823-1.5930252-5.2100048-4.842041-5.2114334-3.2485657.0008564-5.3958397 2.7175789-4.8421059 5.2114334z" fill="#fdf0cd" data-original="#FDF0CD" class="" style="fill:#F6F3ED" data-old_color="#FDF0CD"/><path d="m50.5800095 35.0421486c1.5834579 1.370533 4.6844025-.8622704 8.0054588-2.6189766 3.2197342-1.9758053 6.6596336-3.4755478 6.5783653-5.7033081-.220726-4.3808784-5.6593056-7.4999866-11.2319374-4.3527222-5.5493431 3.1979046-6.4316749 9.9240494-3.3518867 12.6750069z" fill="#ffd98a" data-original="#FFD98A" class="" style="fill:#DCD7CE" data-old_color="#E8E3D9"/><path d="m53.1349335 32.4087181c1.3289299 1.4078445 8.8709259-2.8960133 8.6133537-4.9152279-.5337639-2.4986458-3.5613937-3.8253822-6.4517517-2.1776009-2.889019 1.6495877-3.6806183 5.1557751-2.161602 7.0928288z" fill="#fdf0cd" data-original="#FDF0CD" class="" style="fill:#F6F3ED" data-old_color="#FDF0CD"/><path d="m67.9529114 46.7615776c1.6607742 1.2526283 4.6236038-1.2005463 7.8341141-3.1946259 3.0965042-2.2053528 6.4407425-3.9516449 6.2284622-6.1687393-.4782104-4.3554764-6.0888138-7.0730305-11.4641953-3.5278893-5.3491669 3.593979-5.8335647 10.3697968-2.598381 12.8912545z" fill="#ffd98a" data-original="#FFD98A" class="" style="fill:#DCD7CE" data-old_color="#E8E3D9"/><path d="m70.3473053 43.9482727c1.4089813 1.308342 8.6814194-3.533905 8.3055038-5.5300941-.6797485-2.4545479-3.7790222-3.5586166-6.5661697-1.7045021-2.7857056 1.8558197-3.3691559 5.4119796-1.7393341 7.2345962z" fill="#fdf0cd" data-original="#FDF0CD" class="" style="fill:#F6F3ED" data-old_color="#FDF0CD"/><path d="m61.2117424 28.9099941c-.0034828 2.2293739 3.4866447 3.5793324 6.7731743 5.4143581 3.3802109 1.6117783 6.5568771 3.7086563 8.0914764 2.2708893 2.980423-2.8807678 1.8628464-9.563652-3.7937851-12.5203648-5.67836-2.9052276-11.0034141.4467221-11.0708656 4.8351174z" fill="#ffd98a" data-original="#FFD98A" class="" style="fill:#DCD7CE" data-old_color="#E8E3D9"/><path d="m64.651886 29.5353489c-.1861496 2.0290337 7.5010834 6.0034466 8.779213 4.5389881 1.449707-2.0007629.5362015-5.4698124-2.4086685-6.9939327-2.9453355-1.5218353-5.9245988-.0654087-6.3705445 2.4549446z" fill="#fdf0cd" data-original="#FDF0CD" class="" style="fill:#F6F3ED" data-old_color="#FDF0CD"/><path d="m91.7428741 36.0162239v4.0703125l-13.4199829 56.629879h-46.6500244l-13.4199829-56.629879v-4.0703125c0-3.2099609 2.3499756-5.8198261 5.25-5.8198261 2.8999634 0 5.25 2.6098652 5.25 5.8198261 0-3.2099609 3.1444359 4.3890686 6.0444603 4.3890686 2.8999634 0 4.4555397-7.5990295 4.4555397-4.3890686 0-3.2099609 2.3499756-5.8198261 5.25-5.8198261 2.8999634 0 5.25 2.6098652 5.25 5.8198261 0-3.2099609 3.5209656 9.6240387 6.42099 9.6240387 2.8999634 0 4.07901-12.8339996 4.07901-9.6240387 0-3.2099609 2.3499756-5.8198261 5.25-5.8198261 2.8999634 0 5.25 2.6098652 5.25 5.8198261 0-3.2099609 2.7970428 12.3384666 5.6970673 12.3384666 2.8999634 0 4.8029327-15.5484276 4.8029327-12.3384666 0-3.2099609 2.3499756-5.8198261 5.2399902-5.8198261 2.9000245 0 5.25 2.6098652 5.25 5.8198261z" fill="#dd584d" data-original="#DD584D" class="" style="fill:#DBD6D6" data-old_color="#DD584D"/><g fill="#cd5248"><path d="m23.5057201 30.1916924c-2.8991623 0-5.2493019 2.6099548-5.2493019 5.8293037v4.0612183h10.4986038v-4.0612183c0-3.2193489-2.350378-5.8293037-5.2493019-5.8293037z" data-original="#000000" class="active-path" style="fill:#C5BCBC" data-old_color="#000000"/><path d="m44.5029259 30.1916924c-2.898922 0-5.2493019 2.6099548-5.2493019 5.8293037v4.0612183h10.4986038v-4.0612183c0-3.2193489-2.3501396-5.8293037-5.2493019-5.8293037z" data-original="#000000" class="active-path" style="fill:#C5BCBC" data-old_color="#000000"/><path d="m65.5003738 30.1916924c-2.8991661 0-5.2493057 2.6099548-5.2493057 5.8293037v4.0612183h10.4986038v-4.0612183c0-3.2193489-2.3501358-5.8293037-5.2492981-5.8293037z" data-original="#000000" class="active-path" style="fill:#C5BCBC" data-old_color="#000000"/><path d="m86.4975815 30.1916924c-2.8989258 0-5.2490692 2.6099548-5.2490692 5.8293037v4.0612183h10.4986038v-4.0612183c0-3.2193489-2.35038-5.8293037-5.2495346-5.8293037z" data-original="#000000" class="active-path" style="fill:#C5BCBC" data-old_color="#000000"/></g><path d="m60.25 36.0199585v4.0599976l-1.9199829 56.6400146h-6.6600342l-1.9199829-56.6400146v-4.0599976c0-3.2199707 2.3499756-5.8299561 5.25-5.8299561s5.25 2.6099854 5.25 5.8299561z" fill="#ededed" data-original="#EDEDED" class=""/><path d="m81.25 36.0199585v4.0599976l-9.5900269 56.6400146h-6.6599731l5.75-56.6400146v-4.0599976c0-3.2199707 2.3499756-5.8299561 5.25-5.8299561s5.25 2.6099854 5.25 5.8299561z" fill="#ededed" data-original="#EDEDED" class=""/><path d="m39.25 40.0799561 5.7600098 56.6400146h-6.6699829l-9.5800171-56.6400146v-4.0599976c0-3.2199707 2.3499756-5.8299561 5.2399902-5.8299561 2.9000244 0 5.25 2.6099854 5.25 5.8299561z" fill="#ededed" data-original="#EDEDED" class=""/><path d="m34.0043221 30.1916924c-2.8991604 0-5.2493 2.6099548-5.2493 5.8293037v4.0612183h10.4986019v-4.0612183c0-3.2193489-2.3501397-5.8293037-5.2493019-5.8293037z" fill="#dbd8dd" data-original="#DBD8DD" class="" style="fill:#DBD8DD"/><path d="m55.0017662 30.1916924c-2.8991623 0-5.2495384 2.6099548-5.2495384 5.8293037v4.0612183h10.4988403v-4.0612183c0-3.2193489-2.3501396-5.8293037-5.2493019-5.8293037z" fill="#dbd8dd" data-original="#DBD8DD" class="" style="fill:#DBD8DD"/><path d="m75.9989777 30.1916924c-2.8991623 0-5.2493057 2.6099548-5.2493057 5.8293037v4.0612183h10.4988403v-4.0612183c0-3.2193489-2.3503723-5.8293037-5.2495346-5.8293037z" fill="#dbd8dd" data-original="#DBD8DD" class="" style="fill:#DBD8DD"/></g> </svg>
