<?xml version="1.0"?>
<svg xmlns="http://www.w3.org/2000/svg" height="512px" viewBox="-123 0 512 512" width="512px" class=""><g><path d="m118.101562 303h30v194h-30zm0 0" fill="#c6e2e7" data-original="#C6E2E7"/><path d="m133.101562 303h15v194h-15zm0 0" fill="#a8d3d8" data-original="#A8D3D8"/><path d="m13.101562 482h240v30h-240zm0 0" fill="#c6e2e7" data-original="#C6E2E7"/><path d="m254.300781 90-121.199219 30-121.199218-30 11.996094-90h218.402343zm0 0" fill="#deecf1" data-original="#DEECF1"/><path d="m254.300781 90-121.199219 30v-120h109.199219zm0 0" fill="#c6e2e7" data-original="#C6E2E7"/><path d="m133.101562 482h120v30h-120zm0 0" fill="#a8d3d8" data-original="#A8D3D8"/><path d="m133.101562 318c-39.902343 0-77.402343-17.699219-102.902343-48.601562-25.5-30.898438-35.398438-71.398438-27.597657-110.699219.898438-5.398438 9-65.398438 9.300782-68.699219h242.398437s9 66 9.296875 69.902344c16.203125 80.398437-45.898437 158.097656-130.496094 158.097656zm0 0" fill="#c83c50" data-original="#C83C50" class="" style="fill:#E3E6E6" data-old_color="#e3e6e6"/><path d="m133.101562 318v-228h121.199219s9 66 9.296875 69.902344c16.203125 80.398437-45.898437 158.097656-130.496094 158.097656zm0 0" fill="#b03244" data-original="#B03244" class="active-path" style="fill:#DCDBDB" data-old_color="#dcdbdb"/></g> </svg>
