<?xml version="1.0"?>
<svg xmlns="http://www.w3.org/2000/svg" xmlns:xlink="http://www.w3.org/1999/xlink" version="1.1" id="Capa_1" x="0px" y="0px" viewBox="0 0 346 346" style="enable-background:new 0 0 346 346;" xml:space="preserve" width="512px" height="512px" class=""><g><path style="fill:#E3E6E6" d="M137.4,72H177h78v232c0,19.6-16,35.6-35.6,35.6H70.6C51,339.6,35,323.6,35,304V72h38.8L137.4,72  L137.4,72z" data-original="#F9A40E" class="" data-old_color="#e3e6e6"/><path style="fill:#D1CFC8" d="M255,72c0,0-9.2-25.6-24.8-26.8c-15.2-1.2-20,2.4-20,2.4S201,20,177,18.8c-13.6-0.4-16.8,8-17.2,15.6  C155.4,18,140.6,6,122.6,6c-21.2,0-38.4,17.2-38.4,38.8c0,2,0.4,4,0.4,6c-5.2-4.8-12.4-8-20-8c-16.4,0-29.6,13.6-29.6,30h40  c-0.8,2-1.2,4-1.2,6V124c0,10,8.4,18.4,18.4,18.4s18.4-8.4,18.4-18.4v-7.6c3.2,2.4,6.8,3.6,10.8,3.6c10,0,18.4-8.4,18.4-18.4V72.4  L255,72z" data-original="#FFF7D7" class="" data-old_color="#FFF7D7"/><path style="fill:#7E7D7C" d="M261,304v-37.2h15.2c22.4,0,40.8-18.4,40.8-40.8v-78c0-22.4-18.4-40.8-40.8-40.8H261V76l0,0v-0.4V72  c0-0.8-0.4-1.6-0.4-2.4c-3.2-17.6-18.4-30.8-36.8-30.8c-2.4,0-5.2,0.4-7.6,0.8C211.4,28,204.2,20,194.6,16c-14-6-28.8-2-36.4,1.2  C149.8,6.8,137.4,0,123,0c-22.8,0-41.6,17.2-44.4,39.6c-4-2-8.8-2.8-13.6-2.8c-19.6,0-35.2,15.6-36,35.2c0,0,0,0,0,0.4v232  c0,22.8,18.8,41.6,41.6,41.6h148.8C242.2,345.6,261,326.8,261,304z M41.4,78.4h26.4v47.2c0,13.6,11.2,24.8,24.8,24.8  s24.8-11.2,24.8-24.8v-3.2c2,0.8,4.4,1.2,6.8,1.2c10.4,0,19.2-8.4,19.2-19.2v-26h105.2V298H41.4V78.4z M276.2,120  c15.6,0,28.4,12.8,28.4,28.4v78c0,15.6-12.8,28.4-28.4,28.4H261V120H276.2z M65,49.2c6,0,11.6,2.4,16,6.4c2,2,4.8,2,7.2,0.8  s3.6-4,3.2-6.4C91,48.4,91,46.4,91,45.2c0-18,14.4-32.8,32.4-32.8c11.6,0,21.6,6,27.2,15.2l0,0l0,0c3.2,4.8,5.2,10.8,5.2,17.2  c0,0,0,0.4,0,0.8c0,3.6,2.8,6,6,6c3.6,0,6-2.8,6-6.4c0-6-1.2-12-3.2-17.2c6-2,16.4-4.4,25.2-0.4c6.4,2.8,11.2,8.4,14.8,16.8  c-4,2.4-7.6,5.6-10.8,9.6c-2,2.8-1.6,6.4,1.2,8.8c2.8,2,6.8,1.6,8.8-1.2c4.8-6.4,12-10,20-10c10,0,18.8,6,22.8,14.8H137.4  c-3.6,0-6,2.8-6,6l0,0v32c0,3.6-3.2,6.8-6.8,6.8c-3.6,0-6.8-3.2-6.8-6.8V72c0-3.6-2.8-6-6-6c-3.6,0-6,2.8-6,6v32.4v21.2  c0,6.8-5.6,12.4-12.4,12.4c-6.8,0-12.4-5.6-12.4-12.4V72l0,0c0-3.6-2.8-6-6-6H43.4C45.8,56,54.6,49.2,65,49.2z M42.2,310h206  c-2.8,13.2-14.4,23.2-28.4,23.2H70.6C56.6,333.2,45,323.2,42.2,310z" data-original="#3B1B00" class="active-path" data-old_color="#71706F"/></g> </svg>
